<svg width="18" height="18" viewBox="0 0 18 18" fill="none" xmlns="http://www.w3.org/2000/svg">
<path d="M11.2508 16.5001V13.5001C11.3552 12.5606 11.0858 11.6177 10.5008 10.8751C12.7508 10.8751 15.0008 9.37512 15.0008 6.75012C15.0608 5.81262 14.7983 4.89012 14.2508 4.12512C14.4608 3.26262 14.4608 2.36262 14.2508 1.50012C14.2508 1.50012 13.5008 1.50012 12.0008 2.62512C10.0208 2.25012 7.98082 2.25012 6.00082 2.62512C4.50082 1.50012 3.75082 1.50012 3.75082 1.50012C3.52582 2.36262 3.52582 3.26262 3.75082 4.12512C3.20473 4.88703 2.93968 5.81471 3.00082 6.75012C3.00082 9.37512 5.25082 10.8751 7.50082 10.8751C7.20832 11.2426 6.99082 11.6626 6.86332 12.1126C6.73582 12.5626 6.69832 13.0351 6.75082 13.5001V16.5001" stroke="#87F0F2" stroke-width="1.5" stroke-linecap="round" stroke-linejoin="round"/>
<path d="M6.75 13.4999C3.3675 14.9999 3 11.9999 1.5 11.9999" stroke="#87F0F2" stroke-width="1.5" stroke-linecap="round" stroke-linejoin="round"/>
</svg>
