<svg width="73" height="24" viewBox="0 0 73 24" fill="none" xmlns="http://www.w3.org/2000/svg">
<g clip-path="url(#clip0_112_39)">
<mask id="mask0_112_39" style="mask-type:luminance" maskUnits="userSpaceOnUse" x="0" y="0" width="72" height="24">
<path d="M71.9999 0H0V24H71.9999V0Z" fill="white"/>
</mask>
<g mask="url(#mask0_112_39)">
<path d="M3.52045 12.7257C2.82324 12.7257 2.20949 12.5742 1.67921 12.2712C1.14894 11.9585 0.736494 11.5284 0.441898 10.9811C0.147299 10.4239 0 9.78377 0 9.0605C0 8.19061 0.216039 7.42821 0.648117 6.77336C1.09001 6.1185 1.71358 5.61514 2.51882 5.26328C3.33387 4.91142 4.28641 4.73549 5.37642 4.73549C5.87724 4.73549 6.28477 4.7697 6.59901 4.83811V4.53024C6.59901 3.78741 6.46153 3.23518 6.18657 2.87355C5.91161 2.50214 5.49426 2.31643 4.93453 2.31643C4.03109 2.31643 3.45171 2.79047 3.1964 3.73854C3.11784 4.01221 2.95581 4.1295 2.71031 4.0904L0.707037 3.73854C0.559738 3.70922 0.456628 3.64569 0.397708 3.54795C0.348608 3.45021 0.343699 3.31826 0.382978 3.15211C0.638297 2.15516 1.17839 1.38302 2.00327 0.835672C2.83797 0.278558 3.88379 0 5.14074 0C6.63338 0 7.76755 0.400733 8.54333 1.2022C9.32893 2.00366 9.72173 3.17165 9.72173 4.70616V12.0806C9.72173 12.1881 9.68246 12.281 9.60392 12.3592C9.53519 12.4276 9.44683 12.4618 9.33875 12.4618H7.42392C7.18821 12.4618 7.04091 12.3348 6.98199 12.0806L6.68739 10.7025H6.56955C6.30441 11.3476 5.90671 11.846 5.37642 12.1979C4.85597 12.5498 4.23731 12.7257 3.52045 12.7257ZM3.21112 8.70857C3.21112 9.22661 3.3437 9.64203 3.60883 9.95475C3.88379 10.2578 4.25204 10.4093 4.71358 10.4093C5.32242 10.4093 5.78887 10.1405 6.11292 9.6029C6.43698 9.05555 6.59901 8.27366 6.59901 7.25717V6.48014C6.32405 6.43127 6.06383 6.40684 5.81832 6.40684C5.01309 6.40684 4.37479 6.61697 3.90344 7.03726C3.44189 7.44777 3.21112 8.00486 3.21112 8.70857ZM11.5483 0.645081C11.5483 0.537568 11.5826 0.449602 11.6514 0.381185C11.73 0.302993 11.8233 0.263897 11.9313 0.263897H13.8756C13.9836 0.263897 14.072 0.298106 14.1407 0.366524C14.2193 0.434941 14.2684 0.527794 14.2881 0.645081L14.5826 2.08185H14.7005C14.9656 1.40745 15.3437 0.894319 15.8347 0.542455C16.3355 0.180819 16.9247 0 17.6022 0C18.3289 0 18.9525 0.190593 19.473 0.571777C20.0032 0.952959 20.4108 1.49542 20.6955 2.19914H20.8134C21.2455 1.45632 21.7315 0.904094 22.2717 0.542455C22.8118 0.180819 23.4157 0 24.0835 0C24.8102 0 25.4386 0.195479 25.9688 0.586438C26.509 0.977395 26.9214 1.53451 27.2062 2.25779C27.4909 2.98106 27.6333 3.83628 27.6333 4.82345V12.0806C27.6333 12.1881 27.5941 12.281 27.5155 12.3592C27.4468 12.4276 27.3584 12.4618 27.2504 12.4618H24.8936C24.7856 12.4618 24.6923 12.4276 24.6137 12.3592C24.545 12.281 24.5106 12.1881 24.5106 12.0806V5.05802C24.5106 4.34453 24.3731 3.79719 24.0982 3.416C23.8232 3.03482 23.4255 2.84422 22.9051 2.84422C22.3355 2.84422 21.8985 3.06902 21.5941 3.51863C21.2995 3.96823 21.1522 4.6182 21.1522 5.46853V12.0806C21.1522 12.1881 21.1129 12.281 21.0344 12.3592C20.9656 12.4276 20.8772 12.4618 20.7692 12.4618H18.4124C18.3044 12.4618 18.2111 12.4276 18.1326 12.3592C18.0638 12.281 18.0294 12.1881 18.0294 12.0806V5.05802C18.0294 4.34453 17.892 3.79719 17.617 3.416C17.342 3.03482 16.9443 2.84422 16.4239 2.84422C15.8543 2.84422 15.4174 3.06902 15.1129 3.51863C14.8183 3.96823 14.671 4.6182 14.671 5.46853V12.0806C14.671 12.1881 14.6318 12.281 14.5531 12.3592C14.4844 12.4276 14.3961 12.4618 14.2881 12.4618H11.9313C11.8233 12.4618 11.73 12.4276 11.6514 12.3592C11.5826 12.281 11.5483 12.1881 11.5483 12.0806V0.645081ZM29.1653 9.0605C29.1653 8.19061 29.3813 7.42821 29.8134 6.77336C30.2553 6.1185 30.8789 5.61514 31.6841 5.26328C32.4992 4.91142 33.4517 4.73549 34.5417 4.73549C35.0425 4.73549 35.4501 4.7697 35.7642 4.83811V4.53024C35.7642 3.78741 35.6268 3.23518 35.3518 2.87355C35.0769 2.50214 34.6595 2.31643 34.0998 2.31643C33.1964 2.31643 32.617 2.79047 32.3616 3.73854C32.2831 4.01221 32.1211 4.1295 31.8756 4.0904L29.8723 3.73854C29.725 3.70922 29.6219 3.64569 29.5629 3.54795C29.5139 3.45021 29.509 3.31826 29.5483 3.15211C29.8035 2.15516 30.3437 1.38302 31.1685 0.835672C32.0032 0.278558 33.0491 0 34.306 0C35.7986 0 36.9328 0.400733 37.7086 1.2022C38.4942 2.00366 38.887 3.17165 38.887 4.70616V12.0806C38.887 12.1881 38.8477 12.281 38.7692 12.3592C38.7005 12.4276 38.6121 12.4618 38.504 12.4618H36.5891C36.3535 12.4618 36.2062 12.3348 36.1472 12.0806L35.8527 10.7025H35.7348C35.4697 11.3476 35.072 11.846 34.5417 12.1979C34.0213 12.5498 33.4026 12.7257 32.6857 12.7257C31.9688 12.7257 31.3747 12.5742 30.8445 12.2712C30.3142 11.9585 29.9018 11.5284 29.6072 10.9811C29.3125 10.4239 29.1653 9.78377 29.1653 9.0605ZM32.3764 8.70857C32.3764 9.22661 32.509 9.64203 32.7741 9.95475C33.0491 10.2578 33.4173 10.4093 33.8789 10.4093C34.4877 10.4093 34.9541 10.1405 35.2782 9.6029C35.6022 9.05555 35.7642 8.27366 35.7642 7.25717V6.48014C35.4893 6.43127 35.2291 6.40684 34.9836 6.40684C34.1784 6.40684 33.54 6.61697 33.0687 7.03726C32.6072 7.44777 32.3764 8.00486 32.3764 8.70857ZM40.4778 10.3067C40.4778 10.0916 40.5368 9.90588 40.6546 9.74952L45.6922 2.72694H40.9786C40.8706 2.72694 40.7773 2.69272 40.6988 2.62431C40.6301 2.54612 40.5957 2.45326 40.5957 2.34575V0.645081C40.5957 0.537568 40.6301 0.449602 40.6988 0.381185C40.7773 0.302993 40.8706 0.263897 40.9786 0.263897H48.7266C48.8346 0.263897 48.923 0.302993 48.9917 0.381185C49.0703 0.449602 49.1096 0.537568 49.1096 0.645081V2.41906C49.1096 2.63408 49.0507 2.81979 48.9328 2.97617L44.3666 9.22174C44.6415 9.17286 44.9214 9.14843 45.2062 9.14843C45.9132 9.14843 46.5613 9.21199 47.1505 9.33904C47.7495 9.45628 48.3682 9.65177 49.0065 9.92544C49.2324 10.0232 49.3452 10.1894 49.3452 10.4239V12.1099C49.3452 12.2663 49.2962 12.3738 49.198 12.4325C49.0998 12.4814 48.977 12.4765 48.8298 12.4178C48.0933 12.1441 47.4402 11.9536 46.8706 11.846C46.3109 11.7288 45.6972 11.6701 45.0294 11.6701C44.3616 11.6701 43.7234 11.7288 43.085 11.846C42.4566 11.9633 41.7594 12.1539 40.9934 12.4178C40.8461 12.4667 40.7234 12.4667 40.6252 12.4178C40.5269 12.3592 40.4778 12.2566 40.4778 12.1099V10.3067ZM49.9934 6.36285C49.9934 5.17043 50.2242 4.0904 50.6857 3.12278C51.1472 2.14539 51.7806 1.38302 52.5858 0.835672C53.4009 0.278558 54.3044 0 55.2962 0C56.288 0 57.2012 0.278558 58.0065 0.835672C58.8215 1.38302 59.4599 2.14539 59.9214 3.12278C60.3927 4.0904 60.6284 5.17043 60.6284 6.36285C60.6284 7.55526 60.3927 8.64021 59.9214 9.61759C59.4599 10.5852 58.8215 11.3476 58.0065 11.9047C57.2012 12.4521 56.2978 12.7257 55.2962 12.7257C54.2946 12.7257 53.4009 12.4521 52.5858 11.9047C51.7806 11.3476 51.1472 10.5852 50.6857 9.61759C50.2242 8.64021 49.9934 7.55526 49.9934 6.36285ZM53.234 6.36285C53.234 7.60414 53.4107 8.56203 53.7642 9.23643C54.1178 9.90101 54.6284 10.2334 55.2962 10.2334C55.9639 10.2334 56.4795 9.90101 56.8428 9.23643C57.2061 8.56203 57.3878 7.60414 57.3878 6.36285C57.3878 5.12156 57.2061 4.1686 56.8428 3.50397C56.4795 2.82956 55.9639 2.49236 55.2962 2.49236C54.6284 2.49236 54.1178 2.82956 53.7642 3.50397C53.4107 4.1686 53.234 5.12156 53.234 6.36285ZM62.2193 0.645081C62.2193 0.537568 62.2536 0.449602 62.3223 0.381185C62.4009 0.302993 62.4942 0.263897 62.6022 0.263897H64.5465C64.6546 0.263897 64.743 0.298106 64.8117 0.366524C64.8903 0.434941 64.9393 0.527794 64.959 0.645081L65.2536 2.08185H65.3714C65.6366 1.41723 66.0245 0.904094 66.5351 0.542455C67.0556 0.180819 67.6644 0 68.3616 0C69.1079 0 69.7511 0.195479 70.2913 0.586438C70.8412 0.977395 71.2634 1.53451 71.558 2.25779C71.8526 2.98106 71.9999 3.83628 71.9999 4.82345V12.0806C71.9999 12.1881 71.9606 12.281 71.8821 12.3592C71.8134 12.4276 71.7249 12.4618 71.6169 12.4618H69.2601C69.1521 12.4618 69.0588 12.4276 68.9803 12.3592C68.9116 12.281 68.8772 12.1881 68.8772 12.0806V5.05802C68.8772 4.34453 68.7299 3.79719 68.4353 3.416C68.1406 3.03482 67.7233 2.84422 67.1832 2.84422C66.5842 2.84422 66.1276 3.06902 65.8134 3.51863C65.4991 3.96823 65.342 4.6182 65.342 5.46853V12.0806C65.342 12.1881 65.3027 12.281 65.2241 12.3592C65.1554 12.4276 65.0671 12.4618 64.959 12.4618H62.6022C62.4942 12.4618 62.4009 12.4276 62.3223 12.3592C62.2536 12.281 62.2193 12.1881 62.2193 12.0806V0.645081Z" fill="#8292B1"/>
<path d="M8.18832 14.1474C8.00178 14.294 7.96243 14.5384 8.0705 14.8804C8.16869 15.1835 8.39945 15.5598 8.76279 16.0094C10.226 17.8078 11.969 19.3032 13.9919 20.4956C16.0149 21.6881 18.1801 22.5677 20.4878 23.1346C22.8053 23.7113 25.1719 23.9996 27.5876 23.9996C30.681 23.9996 33.6269 23.55 36.4256 22.6508C39.2243 21.7614 41.5615 20.5103 43.4371 18.8976C44.095 18.3209 44.424 17.8615 44.424 17.5194C44.424 17.3924 44.37 17.2653 44.262 17.1383C44.1146 16.9916 43.9379 16.9428 43.7316 16.9916C43.5254 17.0405 43.2358 17.1627 42.8626 17.3582C41.0655 18.2964 38.8757 19.0442 36.293 19.6013C33.7202 20.1682 31.0345 20.4516 28.2358 20.4516C24.7693 20.4516 21.4207 19.9825 18.1899 19.0442C14.9592 18.1059 12.0967 16.6398 9.60243 14.6459C9.23908 14.3625 8.94447 14.1816 8.71858 14.1034C8.50258 14.0252 8.32578 14.0399 8.18832 14.1474Z" fill="#8292B1"/>
<path d="M40.918 14.8809C40.7117 15.0764 40.6577 15.2816 40.7559 15.4967C40.8246 15.653 40.9572 15.741 41.1536 15.7606C41.35 15.7899 41.6299 15.7704 41.9932 15.7019C42.5825 15.5749 43.1962 15.4869 43.8345 15.4381C44.4728 15.3989 45.0276 15.4087 45.499 15.4674C45.9703 15.5358 46.2649 15.653 46.3827 15.8192C46.5595 16.0831 46.4957 16.6402 46.1913 17.4906C45.8966 18.3409 45.494 19.1668 44.9834 19.9682C44.787 20.2908 44.6691 20.545 44.6299 20.7306C44.5906 20.9163 44.6397 21.0727 44.7772 21.1998C44.8656 21.2877 44.9638 21.3317 45.0718 21.3317C45.3566 21.3317 45.769 21.0825 46.3091 20.584C47.2813 19.7434 47.9638 18.7465 48.3566 17.5932C48.5726 16.997 48.7051 16.3714 48.7542 15.7166C48.8034 15.0618 48.7297 14.5926 48.5333 14.3091C48.3467 14.0354 47.9343 13.8106 47.296 13.6347C46.6675 13.4588 46.0342 13.3709 45.3958 13.3709C44.1487 13.3709 42.9654 13.664 41.846 14.2505C41.4335 14.4753 41.1241 14.6854 40.918 14.8809Z" fill="#8292B1"/>
</g>
</g>
<defs>
<clipPath id="clip0_112_39">
<rect width="72.4316" height="23.9024" fill="white" transform="scale(1.00408)"/>
</clipPath>
</defs>
</svg>
