<svg width="103" height="18" viewBox="0 0 103 18" fill="none" xmlns="http://www.w3.org/2000/svg">
<g clip-path="url(#clip0_112_47)">
<path d="M42.9425 0.000122202C41.3284 0.000122202 40.0938 0.45153 39.2157 1.37716C38.3372 2.30316 37.8861 3.34772 37.8861 4.5344C37.8861 5.57896 38.2186 6.50497 38.8832 7.3356C39.3817 7.97663 40.3077 8.52265 41.6133 9.02118L42.7525 9.44828C43.3225 9.66183 43.6785 9.78113 43.8446 9.85219C44.0106 9.92325 44.2717 10.0418 44.6281 10.2079C44.9841 10.3978 45.1977 10.5639 45.3162 10.7064C45.4112 10.8724 45.5062 11.0624 45.6252 11.3235C45.7437 11.5849 45.7908 11.8934 45.7908 12.2495C45.7908 13.033 45.5298 13.6501 45.0316 14.1011C44.5331 14.5522 43.8446 14.7893 42.9661 14.7893C42.0879 14.7893 41.3759 14.5282 40.8298 14.0301C40.2838 13.5312 39.9992 12.8669 39.9992 12.012V11.7749H37.4826C37.4826 13.413 38.0051 14.7182 39.0257 15.6678C40.0467 16.6173 41.3759 17.0923 42.9661 17.0923C44.5092 17.0923 45.7673 16.5938 46.7883 15.6203C47.8089 14.6471 48.3074 13.5076 48.3074 12.1545C48.3074 10.9914 47.9275 9.99431 47.1679 9.18723C46.5508 8.52265 45.5298 7.92913 44.1056 7.40703L43.1561 7.05099C42.1119 6.64708 41.3994 6.26748 40.9959 5.91144C40.592 5.5554 40.4027 5.08043 40.4027 4.4869C40.4027 3.79876 40.6398 3.27629 41.0909 2.87275C41.5419 2.49315 42.159 2.30316 42.9421 2.30316C43.7256 2.30316 44.3431 2.51671 44.8181 2.92025C45.2927 3.32416 45.5298 3.91731 45.5298 4.65333V4.96187H48.0464C48.0464 3.44272 47.5953 2.23173 46.6933 1.32966C45.7673 0.451531 44.5331 0.000495989 42.9421 0.000495989L42.9425 0.000122202ZM80.0455 0.000122202C78.4314 0.000122202 77.1968 0.45153 76.3187 1.37716C75.4402 2.30316 74.9891 3.34772 74.9891 4.5344C74.9891 5.57896 75.3216 6.50497 75.9862 7.3356C76.4847 7.97663 77.4104 8.52265 78.7164 9.02118L79.8555 9.44828C80.4255 9.66183 80.7815 9.78113 80.9476 9.85219C81.1136 9.92325 81.3747 10.0418 81.7307 10.2079C82.0871 10.3978 82.3007 10.5639 82.4192 10.7064C82.5142 10.8724 82.6092 11.0624 82.7278 11.3235C82.8467 11.5849 82.8942 11.8934 82.8942 12.2495C82.8942 13.033 82.6332 13.6501 82.1346 14.1011C81.6361 14.5522 80.9476 14.7893 80.0694 14.7893C79.1909 14.7893 78.4789 14.5282 77.9328 14.0301C77.3868 13.5312 77.1018 12.8669 77.1018 12.012V11.7749H74.5856C74.5856 13.413 75.1081 14.7182 76.1287 15.6678C77.1497 16.6173 78.4789 17.0923 80.0694 17.0923C81.6125 17.0923 82.8706 16.5938 83.8913 15.6203C84.9123 14.6471 85.4104 13.5076 85.4104 12.1545C85.4104 10.9914 85.0305 9.99431 84.2709 9.18723C83.6538 8.52265 82.6328 7.92913 81.2086 7.40703L80.2591 7.05099C79.2145 6.64708 78.5024 6.26748 78.0989 5.91144C77.6954 5.5554 77.5054 5.08043 77.5054 4.4869C77.5054 3.79876 77.7428 3.27629 78.1939 2.87275C78.6449 2.49315 79.2624 2.30316 80.0455 2.30316C80.829 2.30316 81.4461 2.51671 81.9207 2.92025C82.3957 3.32416 82.6332 3.91731 82.6332 4.65333V4.96187H85.1494C85.1494 3.44272 84.6983 2.23173 83.7963 1.32966C82.8703 0.451531 81.6361 0.000122202 80.0455 0.000122202ZM0 0.237982V16.8544H2.37373V3.75126L7.69115 12.368H9.87489L15.2162 3.75126V16.8548H17.59V0.237982H14.7652L8.78283 9.89932L2.82476 0.237982H0ZM21.4354 0.237982V9.87575C21.4354 12.1309 22.0289 13.8876 23.2156 15.1692C24.3787 16.4513 25.9457 17.0923 27.9159 17.0923C29.8864 17.0923 31.4531 16.4513 32.6402 15.1692C33.8033 13.8876 34.3968 12.1306 34.3968 9.87575V0.237982H31.9995V9.89932C31.9995 11.3949 31.6431 12.5816 30.9074 13.4601C30.1714 14.3382 29.174 14.7657 27.9159 14.7657C26.6578 14.7657 25.6607 14.3382 24.9251 13.4601C24.1891 12.5816 23.833 11.3949 23.833 9.89969V0.237982H21.4354ZM51.3932 0.237982V16.8544H53.8145V0.237982H51.3932ZM57.7788 0.237982V16.8544H60.1529V3.98837L68.7936 16.8548H71.4523V0.237982H69.0782V13.1751L60.4139 0.237982H57.7788ZM93.6715 0.237982L86.9531 16.8544H89.3987L91.2739 12.2255H98.68L100.556 16.8548H103L96.2827 0.237982H93.6715ZM94.9768 3.08668L97.7305 9.87575H92.2234L94.9768 3.08668Z" fill="#8292B1"/>
</g>
<defs>
<clipPath id="clip0_112_47">
<rect width="102.889" height="17.0732" fill="white" transform="scale(1.00108)"/>
</clipPath>
</defs>
</svg>
