<svg width="108" height="28" viewBox="0 0 108 28" fill="none" xmlns="http://www.w3.org/2000/svg">
<g clip-path="url(#clip0_112_1172)">
<path d="M56.2442 27.5581C51.2499 27.5581 50.9398 24.6205 51.8625 21.2821H55.8965C55.5041 23.1249 55.254 24.6735 57.4709 24.6735C58.8341 24.6735 59.6889 23.7932 59.9674 22.4831C60.7051 19.0116 52.6313 18.7984 53.853 13.0553C54.4941 10.0377 56.448 7.63405 61.3623 7.63405C65.2889 7.63405 66.8638 9.39616 65.7389 13.4304H61.8124C62.1193 11.9873 62.1913 10.5184 60.5625 10.5184C59.2538 10.5184 58.326 11.2402 58.0422 12.5744C57.2633 16.2331 65.4508 15.9126 64.1611 21.9764C63.0987 26.9712 59.3152 27.5581 56.2442 27.5581ZM79.8232 27.2378L83.9251 7.95482H94.4486L93.8179 10.9196H87.3277L86.3165 15.6735H92.2989L91.6684 18.638H85.6848L84.4877 24.2739H91.1916L90.5613 27.2378H79.8232ZM75.8995 15.6734L77.5418 7.95446H81.5749L77.4727 27.2391H73.4416L75.2707 18.6382H70.6493L68.8202 27.2391H64.7864L68.8872 7.95446H72.9212L71.2798 15.6734H75.8995ZM45.8151 13.4305L39.0539 27.2392H34.9876L44.4303 7.95479H49.7457L50.88 27.2392H46.6301L45.8151 13.4305ZM102.776 7.95323C108.064 7.95323 108.303 11.4791 107.025 17.4889C106.394 20.4552 105.405 27.2379 98.5134 27.2379H91.9442C93.311 20.8096 94.6777 14.3808 96.045 7.95323H102.776ZM102.916 17.5961C103.67 14.044 104.336 10.9195 101.531 10.9195H99.4473C98.5014 15.3705 97.5543 19.8215 96.6073 24.274H98.5571C101.015 24.274 101.887 22.4303 102.916 17.5961ZM34.0272 27.2392H29.9951L31.8237 18.6387H27.2026L25.3738 27.2392H21.3395L25.4419 7.95501H29.4743L27.8328 15.6734H32.4542L34.0951 7.95501H38.1275L34.0272 27.2392ZM13.3151 15.6734L14.3255 10.9195H9.70628L8.69393 15.6734H13.3151ZM22.3911 10.9195H18.3592L17.3486 15.6734H21.3804L20.7497 18.6386H16.7183L14.8878 27.2391H10.8557L12.6843 18.6386H8.06391L6.23483 27.2391H2.20227L4.03111 18.6386H0L0.630253 15.6734H4.66137L5.67179 10.9195H1.64068L2.27118 7.95494H6.30253L7.94393 0.240845H11.976L10.3363 7.95494H14.9574L16.5976 0.240845H20.6304L18.9902 7.95494H23.0218L22.3911 10.9195Z" fill="#8292B1"/>
</g>
<defs>
<clipPath id="clip0_112_1172">
<rect width="107.692" height="28" fill="white"/>
</clipPath>
</defs>
</svg>
