<svg width="76" height="26" viewBox="0 0 76 26" fill="none" xmlns="http://www.w3.org/2000/svg">
<g clip-path="url(#clip0_112_49)">
<path d="M32.3427 13.1831C32.3427 16.7512 29.5513 19.3805 26.1257 19.3805C22.7 19.3805 19.9087 16.7512 19.9087 13.1831C19.9087 9.58983 22.7 6.98568 26.1257 6.98568C29.5513 6.98568 32.3427 9.58983 32.3427 13.1831ZM29.6212 13.1831C29.6212 10.9534 28.0033 9.42777 26.1257 9.42777C24.248 9.42777 22.6302 10.9534 22.6302 13.1831C22.6302 15.3905 24.248 16.9385 26.1257 16.9385C28.0033 16.9385 29.6212 15.3877 29.6212 13.1831Z" fill="#8292B1"/>
<path d="M45.7543 13.1831C45.7543 16.7512 42.963 19.3805 39.5373 19.3805C36.1117 19.3805 33.3203 16.7512 33.3203 13.1831C33.3203 9.59263 36.1117 6.98568 39.5373 6.98568C42.963 6.98568 45.7543 9.58983 45.7543 13.1831ZM43.0328 13.1831C43.0328 10.9534 41.415 9.42777 39.5373 9.42777C37.6597 9.42777 36.0418 10.9534 36.0418 13.1831C36.0418 15.3905 37.6597 16.9385 39.5373 16.9385C41.415 16.9385 43.0328 15.3877 43.0328 13.1831Z" fill="#8292B1"/>
<path d="M58.6068 7.3601V18.4864C58.6068 23.0632 55.9077 24.9325 52.7168 24.9325C49.7131 24.9325 47.9052 22.9235 47.2235 21.2806L49.5929 20.2942C50.0148 21.3029 51.0487 22.4932 52.714 22.4932C54.7565 22.4932 56.0222 21.2331 56.0222 18.8608V17.9695H55.9272C55.3181 18.7211 54.1446 19.3778 52.6637 19.3778C49.565 19.3778 46.7261 16.6786 46.7261 13.2055C46.7261 9.70719 49.565 6.98568 52.6637 6.98568C54.1418 6.98568 55.3153 7.64231 55.9272 8.37158H56.0222V7.36289H58.6068V7.3601ZM56.215 13.2055C56.215 11.0232 54.7593 9.42777 52.9068 9.42777C51.0291 9.42777 49.456 11.0232 49.456 13.2055C49.456 15.3653 51.0291 16.9385 52.9068 16.9385C54.7593 16.9385 56.215 15.3653 56.215 13.2055Z" fill="#8292B1"/>
<path d="M62.8687 0.838351V19.0003H60.2142V0.838351H62.8687Z" fill="#8292B1"/>
<path d="M73.2128 15.2225L75.3252 16.6307C74.6434 17.6394 73.0005 19.3774 70.1616 19.3774C66.641 19.3774 64.0117 16.6559 64.0117 13.1799C64.0117 9.49444 66.6633 6.9825 69.857 6.9825C73.0731 6.9825 74.6462 9.54194 75.1603 10.925L75.4425 11.6292L67.1579 15.0604C67.7922 16.3038 68.7785 16.9381 70.1616 16.9381C71.5475 16.9381 72.5087 16.2563 73.2128 15.2225ZM66.7108 12.9927L72.2488 10.6931C71.9443 9.91915 71.0278 9.37988 69.9492 9.37988C68.5661 9.37988 66.641 10.6009 66.7108 12.9927Z" fill="#8292B1"/>
<path d="M9.85996 11.5707V8.94144H18.7202C18.8068 9.39968 18.8515 9.94175 18.8515 10.5285C18.8515 12.5012 18.3123 14.9405 16.5743 16.6784C14.8838 18.4388 12.724 19.3776 9.86276 19.3776C4.55945 19.3776 0.0999845 15.0578 0.0999845 9.75454C0.0999845 4.45123 4.55945 0.131475 9.86276 0.131475C12.7966 0.131475 14.8866 1.28267 16.457 2.78313L14.6016 4.63844C13.4756 3.58225 11.95 2.76077 9.85996 2.76077C5.98727 2.76077 2.9584 5.88184 2.9584 9.75454C2.9584 13.6272 5.98727 16.7483 9.85996 16.7483C12.3719 16.7483 13.8025 15.7396 14.719 14.8231C15.4622 14.0799 15.9512 13.0181 16.144 11.5679L9.85996 11.5707Z" fill="#8292B1"/>
</g>
<defs>
<clipPath id="clip0_112_49">
<rect width="75.7158" height="25.6098" fill="white" transform="scale(1.00377)"/>
</clipPath>
</defs>
</svg>
