<svg width="105" height="23" viewBox="0 0 105 23" fill="none" xmlns="http://www.w3.org/2000/svg">
<g clip-path="url(#clip0_112_33)">
<path d="M43.6674 4.47862V17.9147H41.3348V7.3711H41.3037L37.136 17.9147H35.5809L31.3199 7.3711H31.2888V17.9147H29.1428V4.47862H32.5018L36.3585 14.4312H36.4207L40.495 4.47862H43.6674ZM45.5957 5.50498C45.5957 5.13176 45.7201 4.82074 46.0001 4.57192C46.28 4.32311 46.591 4.1987 46.9642 4.1987C47.3685 4.1987 47.7107 4.32311 47.9595 4.57192C48.2083 4.82074 48.3638 5.13176 48.3638 5.50498C48.3638 5.87821 48.2394 6.18923 47.9595 6.43804C47.6796 6.68686 47.3685 6.81126 46.9642 6.81126C46.5599 6.81126 46.2489 6.68686 46.0001 6.43804C45.7512 6.15812 45.5957 5.8471 45.5957 5.50498ZM48.115 8.27306V17.9147H45.8445V8.27306H48.115ZM54.9885 16.2663C55.3306 16.2663 55.7039 16.204 56.1082 16.0174C56.5125 15.8619 56.8857 15.6442 57.2279 15.3954V17.5103C56.8546 17.728 56.4503 17.8836 55.9838 17.9769C55.5172 18.0702 55.0196 18.1324 54.4598 18.1324C53.0291 18.1324 51.8783 17.6969 51.0075 16.795C50.1055 15.893 49.6701 14.7423 49.6701 13.3738C49.6701 11.8187 50.1366 10.5435 51.0386 9.54823C51.9405 8.55297 53.2157 8.05534 54.8952 8.05534C55.3306 8.05534 55.7661 8.11755 56.1704 8.21085C56.6058 8.30416 56.9479 8.45967 57.1968 8.58408V10.7612C56.8546 10.5124 56.4814 10.2947 56.1393 10.1703C55.7661 10.0459 55.3928 9.95256 55.0196 9.95256C54.1177 9.95256 53.4023 10.2325 52.8425 10.8234C52.2826 11.4144 52.0338 12.1919 52.0338 13.1872C52.0338 14.1513 52.3137 14.9289 52.8425 15.4576C53.3712 15.9863 54.0866 16.2663 54.9885 16.2663ZM63.666 8.11755C63.8526 8.11755 64.0081 8.11755 64.1636 8.14865C64.3191 8.17975 64.4435 8.21085 64.5368 8.24195V10.5435C64.4124 10.4502 64.2569 10.3569 64.0081 10.2947C63.7593 10.2325 63.5104 10.1703 63.1683 10.1703C62.6085 10.1703 62.142 10.4191 61.7687 10.8856C61.3955 11.3521 61.1778 12.0675 61.1778 13.0628V17.9147H58.9074V8.27306H61.1778V9.79705H61.2089C61.4266 9.26832 61.7376 8.86399 62.142 8.55297C62.5774 8.27306 63.075 8.11755 63.666 8.11755ZM64.6612 13.2494C64.6612 11.6632 65.1277 10.388 65.9986 9.45493C66.9006 8.52187 68.1446 8.05534 69.7308 8.05534C71.2237 8.05534 72.4056 8.49077 73.2454 9.39273C74.0851 10.2947 74.5205 11.5077 74.5205 13.0317C74.5205 14.5867 74.054 15.8308 73.1832 16.7639C72.2812 17.6969 71.0682 18.1635 69.5131 18.1635C68.0202 18.1635 66.8384 17.728 65.9675 16.8572C65.0966 15.9552 64.6612 14.7423 64.6612 13.2494ZM67.025 13.1561C67.025 14.1513 67.2427 14.9289 67.7092 15.4576C68.1757 15.9863 68.8289 16.2663 69.6686 16.2663C70.4773 16.2663 71.1304 16.0174 71.5659 15.4576C72.0013 14.9289 72.219 14.1513 72.219 13.0939C72.219 12.0675 72.0013 11.2899 71.5659 10.7301C71.1304 10.2014 70.4773 9.92146 69.6997 9.92146C68.86 9.92146 68.2379 10.2014 67.7714 10.7612C67.2427 11.3521 67.025 12.1297 67.025 13.1561ZM77.9106 10.8234C77.9106 11.1344 78.004 11.4144 78.2217 11.601C78.4394 11.7876 78.8748 12.0053 79.5901 12.2852C80.4921 12.6584 81.1452 13.0628 81.4874 13.4982C81.8606 13.9647 82.0472 14.4934 82.0472 15.1466C82.0472 16.0485 81.7051 16.7639 80.9897 17.3237C80.3055 17.8836 79.3413 18.1324 78.1595 18.1324C77.7551 18.1324 77.3197 18.0702 76.8221 17.9769C76.3244 17.8836 75.9201 17.7591 75.578 17.6036V15.3643C75.9823 15.6442 76.4489 15.893 76.9154 16.0485C77.3819 16.204 77.8173 16.2974 78.2217 16.2974C78.7193 16.2974 79.1236 16.2352 79.3413 16.0796C79.5902 15.9241 79.7146 15.7064 79.7146 15.3643C79.7146 15.0533 79.5902 14.8045 79.3413 14.5556C79.0925 14.3379 78.5949 14.0891 77.9106 13.8092C77.0709 13.4671 76.48 13.0628 76.1378 12.6273C75.7957 12.1919 75.6091 11.6321 75.6091 10.9478C75.6091 10.077 75.9512 9.36162 76.6355 8.80179C77.3197 8.24195 78.2217 7.96204 79.3102 7.96204C79.6524 7.96204 80.0256 7.99314 80.4299 8.08644C80.8342 8.17975 81.2075 8.27306 81.4874 8.36636V10.5746C81.1763 10.388 80.8342 10.2014 80.4299 10.0459C80.0256 9.89036 79.6213 9.82815 79.248 9.82815C78.8126 9.82815 78.4705 9.92146 78.2528 10.077C78.0351 10.2947 77.9106 10.5124 77.9106 10.8234ZM83.0114 13.2494C83.0114 11.6632 83.4779 10.388 84.3488 9.45493C85.2507 8.52187 86.4948 8.05534 88.081 8.05534C89.5739 8.05534 90.7557 8.49077 91.5955 9.39273C92.4353 10.2947 92.8707 11.5077 92.8707 13.0317C92.8707 14.5867 92.4041 15.8308 91.5333 16.7639C90.6313 17.6969 89.4184 18.1635 87.8633 18.1635C86.3704 18.1635 85.1885 17.728 84.3176 16.8572C83.4779 15.9552 83.0114 14.7423 83.0114 13.2494ZM85.3751 13.1561C85.3751 14.1513 85.5928 14.9289 86.0594 15.4576C86.5259 15.9863 87.179 16.2663 88.0188 16.2663C88.8274 16.2663 89.4806 16.0174 89.916 15.4576C90.3514 14.9289 90.5691 14.1513 90.5691 13.0939C90.5691 12.0675 90.3514 11.2899 89.916 10.7301C89.4806 10.2014 88.8274 9.92146 88.0499 9.92146C87.2101 9.92146 86.5881 10.2014 86.1216 10.7612C85.6239 11.3521 85.3751 12.1297 85.3751 13.1561ZM100.428 10.1392H97.0383V17.9147H94.7368V10.1392H93.1195V8.27306H94.7368V6.93567C94.7368 5.94041 95.0789 5.10066 95.7321 4.44752C96.3852 3.79438 97.225 3.48336 98.2513 3.48336C98.5312 3.48336 98.78 3.51446 98.9978 3.51446C99.2155 3.51446 99.4021 3.57666 99.5576 3.63887V5.59829C99.4954 5.56719 99.3399 5.50498 99.1533 5.44278C98.9667 5.38058 98.749 5.34947 98.5001 5.34947C98.0336 5.34947 97.6604 5.50498 97.4116 5.7849C97.1628 6.06482 97.0383 6.53135 97.0383 7.09118V8.24195H100.428V6.06482L102.699 5.38057V8.24195H105V10.1081H102.699V14.6179C102.699 15.2088 102.823 15.6131 103.01 15.8619C103.228 16.1107 103.57 16.2352 104.036 16.2352C104.161 16.2352 104.316 16.204 104.503 16.1418C104.689 16.0796 104.845 16.0174 104.969 15.9241V17.7902C104.814 17.8836 104.596 17.9458 104.254 18.008C103.912 18.0702 103.601 18.1013 103.259 18.1013C102.295 18.1013 101.579 17.8525 101.113 17.3548C100.646 16.8572 100.397 16.0796 100.397 15.0533L100.428 10.1392Z" fill="#8292B1"/>
<path d="M10.6369 -0.000123161H0V10.6367H10.6369V-0.000123161Z" fill="#8292B1"/>
<path d="M22.3933 -0.000123161H11.7564V10.6367H22.3933V-0.000123161Z" fill="#8292B1"/>
<path d="M10.6369 11.7563H0V22.3932H10.6369V11.7563Z" fill="#8292B1"/>
<path d="M22.3933 11.7563H11.7564V22.3932H22.3933V11.7563Z" fill="#8292B1"/>
</g>
<defs>
<clipPath id="clip0_112_33">
<rect width="104.07" height="22.1951" fill="white" transform="scale(1.00893)"/>
</clipPath>
</defs>
</svg>
