<svg width="1200" height="348" viewBox="0 0 1200 348" fill="none" xmlns="http://www.w3.org/2000/svg">
<g clip-path="url(#clip0_112_1010)">
<rect width="1200" height="348" fill="#010101"/>
<path d="M17.1709 -196.606L16.8984 -196.181L485.974 102.361L14.4219 -186.321L14.1582 -185.891L13.8945 -185.461L534.771 133.418L563.413 151.647L539.562 138.167L4.84668 -176.487L4.59082 -176.052L4.33398 -175.617L489.186 109.694L2.17773 -165.56L1.92969 -165.12L1.68066 -164.681L539.016 139.017L564.479 154.001L543.758 143.226L-7.03027 -155.515L-7.27051 -155.071L-7.51172 -154.628L492.504 116.573L-9.32715 -144.384L-9.55957 -143.937L-9.79297 -143.489L543.297 144.122L565.674 156.259L548.441 148.049L-18.1689 -134.142L-18.3936 -133.689L-18.6191 -133.238L496.319 123.216L-20.0859 -122.818L-20.3027 -122.363L-20.5176 -121.914L-23.4541 -123.312L-23.6709 -122.856L-23.8887 -122.401L547.192 149.683L-28.5479 -112.392L-28.7568 -111.933L-28.9668 -111.474L500.46 129.518L-30.0811 -100.892L-30.2822 -100.429L-30.4365 -100.075L-33.4521 -101.385L-33.6533 -100.923L-33.8545 -100.46L546.359 151.521L-38.1602 -90.293L-38.3525 -89.8271L-38.5459 -89.3613L505.34 135.642L-39.3232 -78.6309L-39.5078 -78.1611L-39.6055 -77.9131L-42.6807 -79.1221L-42.8652 -78.6533L-43.0508 -78.1836L545.701 153.433L-47.0049 -67.873L-47.1807 -67.4004L-47.3584 -66.9277L545.085 154.28L-51.127 -56.5508H-51.1289L-51.2969 -56.0752L-51.4658 -55.5996L544.92 155.297L-55.0527 -45.1572L-55.2119 -44.6787L-55.3721 -44.2002L520.404 148.171L-57.0713 -33.6279L-57.2051 -33.2012L-58.7861 -33.6982L-58.79 -33.6992L-58.9414 -33.2178L-59.0938 -32.7363L544.227 157.198L-62.3115 -22.1758L-62.4541 -21.6914L-62.5977 -21.208L522.646 151.869L-63.9248 -10.5225L-64.0273 -10.1475L-65.6377 -10.5928L-65.9072 -9.62012L543.9 159.203L-68.7598 1.0459L-68.8857 1.53418L-69.0127 2.02246L525.177 155.412L-69.9678 12.8076L-70.0439 13.1289L-71.6787 12.7383L-71.7959 13.2285L-71.9141 13.7197L543.306 161.134L-74.3887 24.4785L-74.498 24.9707L-74.6074 25.4639L527.84 158.745L-75.1875 36.335L-75.2412 36.6016L-76.8994 36.2656L-77 36.7598L-77.1016 37.2549L542.918 163.114L-79.2041 48.0928L-79.2959 48.5889L-79.3887 49.085L530.723 161.886L-79.5879 60.0303L-79.6221 60.2402L-81.2969 59.9609L-81.3799 60.458L-81.4629 60.9561L542.594 165.104L-83.1846 71.8613L-83.2588 72.3604L-83.334 72.8594L533.751 164.807L-83.1641 83.8643L-83.1836 84.0156L-84.8662 83.7949L-84.9316 84.2949L-84.998 84.7949L599.485 174.604L1181.87 545.267L1182.41 544.415L624.285 189.194L665.347 213.356L1191.62 535.543L1192.15 534.682L715.189 242.687L1194.47 524.722L1194.98 523.852L665.855 212.484L638.809 195.927L661.034 207.98L1203.85 514.78L1204.35 513.902L711.843 235.539L1206.34 503.749L1206.82 502.862L661.54 207.107L637.638 193.599L656.643 203.062L1215.36 493.604L1215.83 492.709L708.361 228.821L1217.47 482.375L1217.92 481.472L657.041 202.134L654.373 200.746L1222.75 471.546L1223.19 470.639L1226.12 472.039L1226.56 471.129L704.295 222.304L1227.85 460.626L1228.27 459.708L652.476 197.606L1232.76 449.618L1233.11 448.802L1236.13 450.112L1236.53 449.187L699.908 216.136L1237.47 438.528L1237.86 437.596L653.318 195.771L1241.99 427.355L1242.27 426.638L1245.34 427.848L1245.71 426.908L695.033 210.268L1246.31 416.106L1246.66 415.162L653.997 193.869L1250.43 404.784L1250.43 404.783L1250.43 404.784L1250.77 403.833L654.393 192.937L1254.36 393.392L1254.68 392.435L654.831 192.019L1258.08 381.932L1258.08 381.931L1258.08 381.933L1258.22 381.504L1259.8 382.002L1260.1 381.04L679.534 198.267L1261.61 370.409L1261.9 369.441L655.188 190.015L1264.93 358.826L1265.04 358.45L1266.65 358.896L1266.92 357.924L677.088 194.628L1268.06 347.187L1268.31 346.21L655.748 188.077L1270.97 335.496L1271.05 335.174L1272.69 335.565L1272.92 334.584L674.47 191.186L1273.69 323.755L1273.91 322.77L656.228 186.116L1276.2 311.969L1276.25 311.701L1277.91 312.038L1278.11 311.049L671.799 187.969L1278.5 300.14L1278.68 299.147L656.499 184.113L1280.6 288.273L1280.64 288.062L1282.31 288.343L1282.47 287.348L668.788 184.927L1282.49 276.371L1282.64 275.373L656.915 182.138L1284.17 264.439L1284.19 264.287L1285.87 264.509L1286 263.508L602.773 173.863L535.427 132.637L17.4414 -197.032L17.1709 -196.606Z" fill="url(#paint0_radial_112_1010)"/>
<path d="M13.9583 -191.502L13.6896 -191.074L485.328 103.349L11.2991 -181.193L11.0402 -180.76L10.7793 -180.328L534.373 133.965L563.191 151.956L539.232 138.689L1.81109 -171.276L1.56001 -170.839L1.30697 -170.402L488.663 110.687L-0.762393 -160.325L-1.0066 -159.884L-1.25178 -159.443L538.75 139.575L564.308 154.315L543.43 143.689L-9.88337 -150.2L-10.1197 -149.755L-10.3571 -149.309L491.95 117.487L-12.0811 -139.051L-12.3096 -138.601L-12.54 -138.151L543.042 144.623L565.494 156.549L548.246 148.516L-20.8302 -128.731L-21.0509 -128.278L-21.2725 -127.824L495.887 124.128L-22.6503 -117.392L-22.8621 -116.935L-23.074 -116.48L-26.0285 -117.856L-26.2403 -117.398L-26.4541 -116.941L546.838 150.083L-31.0219 -106.892L-31.2268 -106.431L-31.4328 -105.97L500.064 130.387L-32.4556 -95.3782L-32.6528 -94.9136L-32.803 -94.5597L-35.8299 -95.8419L-36.0271 -95.3783L-36.2242 -94.9136L546.207 152.011L-40.4419 -84.7095L-40.6302 -84.242L-40.8195 -83.7745L505.001 136.472L-41.5042 -73.0367L-41.6846 -72.5663L-41.7801 -72.3174L-44.8658 -73.4995L-45.0462 -73.0292L-45.2277 -72.5579L545.456 153.887L-49.0887 -62.2132L-49.434 -61.2649L544.949 154.776L-53.1128 -50.8554L-53.1128 -50.8544L-53.1187 -50.8554L-53.2825 -50.3783L-53.4473 -49.9013L544.591 155.726L-56.9351 -39.429L-57.2471 -38.4693L520.201 148.875L-58.8559 -27.8816L-58.986 -27.4537L-60.5713 -27.9369L-60.5752 -27.9379L-60.8695 -26.9724L544.153 157.711L-63.996 -16.3841L-64.1343 -15.8985L-64.2737 -15.4139L522.495 152.561L-65.5085 -4.71716L-65.6087 -4.34127L-67.2219 -4.77253L-67.483 -3.79755L543.779 159.7L-70.2443 6.89297L-70.365 7.38232L-70.4877 7.87267L524.974 156.06L-71.3486 18.6648L-71.422 18.9877L-73.0611 18.6104L-73.174 19.1016L-73.2879 19.5938L543.178 161.63L-75.6685 30.3738L-75.7726 30.8679L-75.8786 31.361L527.738 159.387L-76.3638 42.2368L-76.4152 42.5038L-78.0763 42.1824L-78.1725 42.6774L-78.2698 43.1724L542.851 163.622L-80.2747 54.0301L-80.3622 54.527L-80.4506 55.0239L530.645 162.5L-80.5592 65.9696L-80.5916 66.1779L-82.2619 65.9141L-82.3406 66.4129L-82.4202 66.9117L542.549 165.614L-84.0506 77.8316L-84.1204 78.3312L-84.1913 78.8309L533.675 165.39L-83.9243 89.8339L-83.9426 89.9844L-85.6241 89.7794L-85.6852 90.2799L-85.7472 90.7805L599.488 174.612L1185.08 540.179L1185.62 539.323L624.383 188.966L665.661 212.774L1194.76 530.371L1195.27 529.506L715.737 241.655L1197.51 519.525L1198.01 518.651L666.123 211.874L639.001 195.594L661.387 207.483L1206.81 509.502L1207.29 508.619L712.452 234.607L1209.19 498.45L1209.66 497.559L661.901 206.615L637.796 193.267L656.847 202.549L1218.13 488.226L1218.59 487.326L708.843 227.88L1220.14 476.979L1220.58 476.072L657.244 201.617L654.676 200.311L1225.32 466.105L1225.75 465.192L1228.7 466.568L1229.13 465.653L704.785 221.428L1230.33 455.141L1230.74 454.218L652.712 197.166L1235.14 444.09L1235.49 443.271L1238.51 444.555L1238.91 443.626L700.284 215.272L1239.76 432.96L1240.13 432.024L653.556 195.328L1244.17 421.748L1244.45 421.028L1247.53 422.211L1247.89 421.268L695.314 209.43L1248.4 410.462L1248.74 409.513L654.277 193.441L1252.42 399.104L1252.42 399.102L1252.42 399.104L1252.75 398.15L654.445 192.429L1256.26 387.677L1256.57 386.718L654.987 191.543L1259.87 376.185L1259.87 376.184L1259.87 376.185L1260 375.757L1261.59 376.241L1261.88 375.275L679.797 197.591L1263.3 364.633L1263.58 363.662L655.344 189.542L1266.52 353.021L1266.62 352.645L1268.23 353.076L1268.5 352.101L677.336 193.978L1269.54 341.356L1269.78 340.376L655.86 187.593L1272.36 329.639L1272.43 329.315L1274.07 329.694L1274.3 328.71L674.631 190.542L1274.97 317.875L1275.18 316.887L656.31 185.625L1277.38 306.067L1277.43 305.799L1279.09 306.122L1279.28 305.131L671.909 187.344L1279.58 294.218L1279.75 293.225L656.571 183.623L1281.58 282.334L1281.61 282.125L1283.28 282.389L1283.44 281.392L668.862 184.329L1283.36 270.416L1283.5 269.417L656.922 181.637L1284.94 258.469L1284.95 258.318L1286.64 258.524L1286.76 257.522L602.768 173.843L535.114 133.234L14.2251 -191.93L13.9583 -191.502Z" fill="url(#paint1_radial_112_1010)"/>
<path d="M1183.83 -196.606L1184.11 -196.181L715.03 102.361L1186.58 -186.321L1186.85 -185.891L1187.11 -185.461L666.233 133.418L637.591 151.647L661.441 138.167L1196.16 -176.487L1196.41 -176.052L1196.67 -175.617L711.818 109.694L1198.83 -165.56L1199.07 -165.12L1199.32 -164.681L661.988 139.017L636.525 154.001L657.246 143.226L1208.03 -155.515L1208.27 -155.071L1208.52 -154.628L708.5 116.573L1210.33 -144.384L1210.56 -143.937L1210.8 -143.489L657.707 144.122L635.33 156.259L652.562 148.049L1219.17 -134.142L1219.4 -133.689L1219.62 -133.238L704.685 123.216L1221.09 -122.818L1221.31 -122.363L1221.52 -121.914L1224.46 -123.312L1224.67 -122.856L1224.89 -122.401L653.812 149.683L1229.55 -112.392L1229.76 -111.933L1229.97 -111.474L700.544 129.518L1231.08 -100.892L1231.29 -100.429L1231.44 -100.075L1234.46 -101.385L1234.66 -100.923L1234.86 -100.46L654.645 151.521L1239.16 -90.293L1239.36 -89.8271L1239.55 -89.3613L695.664 135.642L1240.33 -78.6309L1240.51 -78.1611L1240.61 -77.9131L1243.68 -79.1221L1243.87 -78.6533L1244.05 -78.1836L655.303 153.433L1248.01 -67.873L1248.18 -67.4004L1248.36 -66.9277L655.919 154.28L1252.13 -56.5508H1252.13L1252.3 -56.0752L1252.47 -55.5996L656.084 155.297L1256.06 -45.1572L1256.22 -44.6787L1256.38 -44.2002L680.6 148.171L1258.08 -33.6279L1258.21 -33.2012L1259.79 -33.6982L1259.79 -33.6992L1259.95 -33.2178L1260.1 -32.7363L656.777 157.198L1263.32 -22.1758L1263.46 -21.6914L1263.6 -21.208L678.358 151.869L1264.93 -10.5225L1265.03 -10.1475L1266.64 -10.5928L1266.91 -9.62012L657.104 159.203L1269.76 1.0459L1269.89 1.53418L1270.02 2.02246L675.827 155.412L1270.97 12.8076L1271.05 13.1289L1272.68 12.7383L1272.8 13.2285L1272.92 13.7197L657.698 161.134L1275.39 24.4785L1275.5 24.9707L1275.61 25.4639L673.164 158.745L1276.19 36.335L1276.25 36.6016L1277.9 36.2656L1278 36.7598L1278.11 37.2549L658.086 163.114L1280.21 48.0928L1280.3 48.5889L1280.39 49.085L670.281 161.886L1280.59 60.0303L1280.63 60.2402L1282.3 59.9609L1282.38 60.458L1282.47 60.9561L658.41 165.104L1284.19 71.8613L1284.26 72.3604L1284.34 72.8594L667.253 164.807L1284.17 83.8643L1284.19 84.0156L1285.87 83.7949L1285.94 84.2949L1286 84.7949L601.519 174.604L19.1387 545.267L18.5977 544.415L576.719 189.194L535.657 213.356L9.38086 535.543L8.85449 534.682L485.814 242.687L6.53613 524.722L6.02539 523.852L535.148 212.484L562.195 195.927L539.97 207.98L-2.85059 514.78L-3.3457 513.902L489.161 235.539L-5.33398 503.749L-5.81445 502.862L539.464 207.107L563.366 193.599L544.361 203.062L-14.3584 493.604L-14.8232 492.709L492.643 228.821L-16.4639 482.375L-16.9131 481.472L543.963 202.134L546.631 200.746L-21.75 471.546L-22.1816 470.639L-25.1191 472.039L-25.5527 471.129L496.709 222.304L-26.8477 460.626L-27.2656 459.708L548.528 197.606L-31.7529 449.618L-32.1074 448.802L-35.124 450.112L-35.5254 449.187L501.096 216.136L-36.4688 438.528L-36.8545 437.596L547.686 195.771L-40.9834 427.355L-41.2656 426.638L-44.3398 427.848L-44.709 426.908L505.971 210.268L-45.3027 416.106L-45.6553 415.162L547.007 193.869L-49.4277 404.784L-49.4287 404.783L-49.4297 404.784L-49.7656 403.833L546.611 192.937L-53.3574 393.392L-53.6768 392.435L546.173 192.019L-57.0742 381.932L-57.0752 381.931L-57.0781 381.933L-57.2129 381.504L-58.793 382.002L-59.0957 381.04L521.47 198.267L-60.6064 370.409L-60.8916 369.441L545.815 190.015L-63.9297 358.826L-64.0342 358.45L-65.6426 358.896L-65.9111 357.924L523.916 194.628L-67.0518 347.187L-67.3037 346.21L545.256 188.077L-69.9707 335.496L-70.0479 335.174L-71.6816 335.565L-71.916 334.584L526.534 191.186L-72.6895 323.755L-72.9072 322.77L544.776 186.116L-75.1953 311.969L-75.25 311.701L-76.9082 312.038L-77.1084 311.049L529.205 187.969L-77.4971 300.14L-77.6797 299.147L544.505 184.113L-79.5967 288.273L-79.6318 288.062L-81.3057 288.343L-81.4707 287.348L532.216 184.927L-81.4863 276.371L-81.6348 275.373L544.089 182.138L-83.165 264.439L-83.1855 264.287L-84.8672 264.509L-84.998 263.508L598.23 173.863L665.577 132.637L1183.56 -197.032L1183.83 -196.606Z" fill="url(#paint2_radial_112_1010)"/>
<path d="M1187.05 -191.502L1187.31 -191.074L715.676 103.349L1189.7 -181.193L1189.96 -180.76L1190.22 -180.328L666.631 133.965L637.813 151.956L661.772 138.689L1199.19 -171.276L1199.44 -170.839L1199.7 -170.402L712.341 110.687L1201.77 -160.325L1202.01 -159.884L1202.26 -159.443L662.254 139.575L636.696 154.315L657.574 143.689L1210.89 -150.2L1211.12 -149.755L1211.36 -149.309L709.054 117.487L1213.08 -139.051L1213.31 -138.601L1213.54 -138.151L657.962 144.623L635.51 156.549L652.758 148.516L1221.83 -128.731L1222.05 -128.278L1222.28 -127.824L705.117 124.128L1223.65 -117.392L1223.87 -116.935L1224.08 -116.48L1227.03 -117.856L1227.24 -117.398L1227.46 -116.941L654.166 150.083L1232.03 -106.892L1232.23 -106.431L1232.44 -105.97L700.94 130.387L1233.46 -95.3782L1233.66 -94.9136L1233.81 -94.5597L1236.83 -95.8419L1237.03 -95.3783L1237.23 -94.9136L654.797 152.011L1241.45 -84.7095L1241.63 -84.242L1241.82 -83.7745L696.003 136.472L1242.51 -73.0367L1242.69 -72.5663L1242.78 -72.3174L1245.87 -73.4995L1246.05 -73.0292L1246.23 -72.5579L655.547 153.887L1250.09 -62.2132L1250.44 -61.2649L656.055 154.776L1254.12 -50.8554L1254.12 -50.8544L1254.12 -50.8554L1254.29 -50.3783L1254.45 -49.9013L656.413 155.726L1257.94 -39.429L1258.25 -38.4693L680.803 148.875L1259.86 -27.8816L1259.99 -27.4537L1261.58 -27.9369L1261.58 -27.9379L1261.87 -26.9724L656.851 157.711L1265 -16.3841L1265.14 -15.8985L1265.28 -15.4139L678.509 152.561L1266.51 -4.71716L1266.61 -4.34127L1268.23 -4.77253L1268.49 -3.79755L657.225 159.7L1271.25 6.89297L1271.37 7.38232L1271.49 7.87267L676.03 156.06L1272.35 18.6648L1272.43 18.9877L1274.06 18.6104L1274.18 19.1016L1274.29 19.5938L657.826 161.63L1276.67 30.3738L1276.78 30.8679L1276.88 31.361L673.266 159.387L1277.37 42.2368L1277.42 42.5038L1279.08 42.1824L1279.18 42.6774L1279.27 43.1724L658.153 163.622L1281.28 54.0301L1281.37 54.527L1281.45 55.0239L670.359 162.5L1281.56 65.9696L1281.6 66.1779L1283.27 65.9141L1283.34 66.4129L1283.42 66.9117L658.455 165.614L1285.05 77.8316L1285.12 78.3312L1285.2 78.8309L667.329 165.39L1284.93 89.8339L1284.95 89.9844L1286.63 89.7794L1286.69 90.2799L1286.75 90.7805L601.516 174.612L15.9217 540.179L15.3881 539.323L576.621 188.966L535.342 212.774L6.24809 530.371L5.72925 529.506L485.267 241.655L3.49791 519.525L2.9938 518.651L534.881 211.874L562.003 195.594L539.617 207.483L-5.8017 509.502L-6.2901 508.619L488.552 234.607L-8.18776 498.45L-8.66047 497.559L539.102 206.615L563.208 193.267L544.157 202.549L-17.1243 488.226L-17.5813 487.326L492.161 227.88L-19.1346 476.979L-19.5769 476.072L543.76 201.617L546.328 200.311L-24.3192 466.105L-24.7439 465.192L-27.6984 466.568L-28.124 465.653L496.219 221.428L-29.3263 455.141L-29.7362 454.218L548.292 197.166L-34.1353 444.09L-34.4826 443.271L-37.5096 444.555L-37.9038 443.626L500.72 215.272L-38.7532 432.96L-39.1308 432.024L547.448 195.328L-43.1682 421.748L-43.4451 421.028L-46.5298 422.211L-46.8907 421.268L505.69 209.43L-47.3921 410.462L-47.7364 409.513L546.726 193.441L-51.4143 399.104L-51.4152 399.102L-51.4201 399.104L-51.7477 398.15L546.559 192.429L-55.2512 387.677L-55.5622 386.718L546.016 191.543L-58.8659 376.185L-58.8669 376.184L-58.8698 376.185L-59.0008 375.757L-60.5852 376.241L-60.8795 375.275L521.207 197.591L-62.2975 364.633L-62.5742 363.662L545.66 189.542L-65.5185 353.021L-65.6197 352.645L-67.231 353.076L-67.492 352.101L523.668 193.978L-68.5369 341.356L-68.7804 340.376L545.144 187.593L-71.3538 329.639L-71.4281 329.315L-73.0662 329.694L-73.292 328.71L526.373 190.542L-73.9699 317.875L-74.1791 316.887L544.694 185.625L-76.3729 306.067L-76.4252 305.799L-78.0863 306.122L-78.2778 305.131L529.094 187.344L-78.5742 294.218L-78.7482 293.225L544.433 183.623L-80.5722 282.334L-80.6055 282.125L-82.2748 282.389L-82.4322 281.392L532.142 184.329L-82.353 270.416L-82.4917 269.417L544.082 181.637L-83.9314 258.469L-83.9506 258.318L-85.6312 258.524L-85.7533 257.522L598.236 173.843L665.89 133.234L1186.78 -191.93L1187.05 -191.502Z" fill="url(#paint3_radial_112_1010)"/>
<rect width="1200" height="70" fill="url(#paint4_linear_112_1010)"/>
<rect width="1200" height="70" transform="matrix(1 0 0 -1 0 348)" fill="url(#paint5_linear_112_1010)"/>
</g>
<defs>
<radialGradient id="paint0_radial_112_1010" cx="0" cy="0" r="1" gradientUnits="userSpaceOnUse" gradientTransform="translate(600.502 174.117) rotate(90) scale(371.149 685.5)">
<stop offset="0.307692"/>
<stop offset="0.456731" stop-color="#01052B"/>
<stop offset="0.639423" stop-color="#00AEFF"/>
<stop offset="0.855769" stop-color="#0073FF"/>
</radialGradient>
<radialGradient id="paint1_radial_112_1010" cx="0" cy="0" r="1" gradientUnits="userSpaceOnUse" gradientTransform="translate(600.505 174.117) rotate(89.5) scale(371.149 685.499)">
<stop offset="0.307692"/>
<stop offset="0.456731" stop-color="#01052B"/>
<stop offset="0.639423" stop-color="#00AEFF"/>
<stop offset="0.855769" stop-color="#0073FF"/>
</radialGradient>
<radialGradient id="paint2_radial_112_1010" cx="0" cy="0" r="1" gradientUnits="userSpaceOnUse" gradientTransform="translate(600.502 174.117) rotate(90) scale(371.149 685.5)">
<stop offset="0.307692"/>
<stop offset="0.456731" stop-color="#01052B"/>
<stop offset="0.639423" stop-color="#00AEFF"/>
<stop offset="0.855769" stop-color="#0073FF"/>
</radialGradient>
<radialGradient id="paint3_radial_112_1010" cx="0" cy="0" r="1" gradientUnits="userSpaceOnUse" gradientTransform="translate(600.499 174.117) rotate(90.5) scale(371.149 685.499)">
<stop offset="0.307692"/>
<stop offset="0.456731" stop-color="#01052B"/>
<stop offset="0.639423" stop-color="#00AEFF"/>
<stop offset="0.855769" stop-color="#0073FF"/>
</radialGradient>
<linearGradient id="paint4_linear_112_1010" x1="600" y1="0" x2="600" y2="70" gradientUnits="userSpaceOnUse">
<stop stop-color="#010101"/>
<stop offset="1" stop-color="#010101" stop-opacity="0"/>
</linearGradient>
<linearGradient id="paint5_linear_112_1010" x1="600" y1="0" x2="600" y2="70" gradientUnits="userSpaceOnUse">
<stop stop-color="#010101"/>
<stop offset="1" stop-color="#010101" stop-opacity="0"/>
</linearGradient>
<clipPath id="clip0_112_1010">
<rect width="1200" height="348" fill="white"/>
</clipPath>
</defs>
</svg>
