<svg width="835" height="348" viewBox="0 0 835 348" fill="none" xmlns="http://www.w3.org/2000/svg">
<g clip-path="url(#clip0_200_160)">
<rect width="835" height="348" fill="#010101"/>
<path d="M461.239 222.023L418.469 180.105V174.08L897.938 262.647V263.943L897.47 263.856L897.418 264.023L515.099 193.401L897.938 269.709V271.005L897.042 270.826L896.989 270.992L516.434 195.141L897.938 276.761V277.432L897.743 278.016L502.818 193.524L897.657 283.783L897.249 284.988L503.764 195.04L897.15 290.74L896.729 291.937L895.603 291.663L895.522 291.89L519.267 200.355L896.593 297.701L896.165 298.891L895.04 298.602L894.959 298.828L520.791 202.296L896.005 304.635L895.785 305.225L895.565 305.816L502.227 198.534L895.377 311.579L895.153 312.166L894.931 312.754L503.575 200.225L894.71 318.487L894.252 319.652L893.166 319.325L893.053 319.611L523.535 207.884L894.015 325.411L893.551 326.57L892.459 326.224L892.344 326.512L525.029 209.988L893.272 332.3L892.798 333.451L501.385 203.443L892.494 339.202L892.014 340.347L503.462 205.475L891.691 346.062L891.2 347.197L890.14 346.814L889.993 347.155L527.312 215.818L890.846 352.94L890.349 354.068L889.286 353.668L889.139 354.004L528.88 218.116L889.963 359.775L889.71 360.334L889.458 360.894L500.791 208.413L889.041 366.623L888.528 367.734L502.68 210.502L888.102 373.433L887.842 373.983L887.581 374.534L886.55 374.1L886.366 374.489L530.971 224.252L880.05 377.16H875.956L532.532 226.729L864.314 377.16H861.381L500.307 213.446L849.493 377.16H846.652L501.941 215.544L757.77 339.456L835.614 377.16H831.735L534.917 233.396L822.484 377.16H818.706L536.063 235.858L810.12 377.16H807.52L499.256 218.221L798.387 377.16H795.856L501.3 220.651L787.338 377.16H784.867L498.901 220.694L776.781 377.16H774.378L500.561 222.984L766.808 377.16H764.469L498.771 223.303L757.284 377.16H755.001L499.608 225.16L748.237 377.16H744.458L555.995 261.943L739.567 377.16H735.874L557.448 265.174L731.335 377.16H729.205L497.783 228.118L723.426 377.16H721.339L498.439 229.93L715.871 377.16H712.194L563.567 276.521L708.612 377.16H704.996L564.796 279.882L701.676 377.16H699.72L496.26 232.563L694.979 377.16H693.062L497.939 235.18L688.586 377.16H684.984L569.782 291.365L682.383 377.16H678.864L570.09 294.28L676.444 377.16H674.633L494.835 237.046L670.689 377.16H668.909L451.099 203.615L445.536 199.377L455.359 207.728L663.406 377.16H661.659L495.264 241.648L496.328 242.553L658.083 377.16H656.363L576.184 310.438L654.673 377.16H652.984L496.058 243.759L494.784 242.699L649.665 377.16H648.005L454.744 209.379L446.812 202.777L458.571 213.637L643.052 377.16H641.417L497.785 249.845L502.585 254.277L638.397 377.16H636.787L581.065 326.743L635.667 377.16H634.082L502.336 255.509L497.318 250.969L631.263 377.16H629.702L457.918 215.317L447.727 206.098L461.795 220.158L625.16 377.16H623.621L500.294 258.637L509.647 267.985L621.031 377.16H619.515L586.696 344.992L618.882 377.16H617.385L509.16 268.994L499.98 259.997L614.962 377.16H613.488L461.239 222.023Z" fill="#D9D9D9"/>
<path d="M461.239 222.023L418.469 180.105V174.08L897.938 262.647V263.943L897.47 263.856L897.418 264.023L515.099 193.401L897.938 269.709V271.005L897.042 270.826L896.989 270.992L516.434 195.141L897.938 276.761V277.432L897.743 278.016L502.818 193.524L897.657 283.783L897.249 284.988L503.764 195.04L897.15 290.74L896.729 291.937L895.603 291.663L895.522 291.89L519.267 200.355L896.593 297.701L896.165 298.891L895.04 298.602L894.959 298.828L520.791 202.296L896.005 304.635L895.785 305.225L895.565 305.816L502.227 198.534L895.377 311.579L895.153 312.166L894.931 312.754L503.575 200.225L894.71 318.487L894.252 319.652L893.166 319.325L893.053 319.611L523.535 207.884L894.015 325.411L893.551 326.57L892.459 326.224L892.344 326.512L525.029 209.988L893.272 332.3L892.798 333.451L501.385 203.443L892.494 339.202L892.014 340.347L503.462 205.475L891.691 346.062L891.2 347.197L890.14 346.814L889.993 347.155L527.312 215.818L890.846 352.94L890.349 354.068L889.286 353.668L889.139 354.004L528.88 218.116L889.963 359.775L889.71 360.334L889.458 360.894L500.791 208.413L889.041 366.623L888.528 367.734L502.68 210.502L888.102 373.433L887.842 373.983L887.581 374.534L886.55 374.1L886.366 374.489L530.971 224.252L880.05 377.16H875.956L532.532 226.729L864.314 377.16H861.381L500.307 213.446L849.493 377.16H846.652L501.941 215.544L757.77 339.456L835.614 377.16H831.735L534.917 233.396L822.484 377.16H818.706L536.063 235.858L810.12 377.16H807.52L499.256 218.221L798.387 377.16H795.856L501.3 220.651L787.338 377.16H784.867L498.901 220.694L776.781 377.16H774.378L500.561 222.984L766.808 377.16H764.469L498.771 223.303L757.284 377.16H755.001L499.608 225.16L748.237 377.16H744.458L555.995 261.943L739.567 377.16H735.874L557.448 265.174L731.335 377.16H729.205L497.783 228.118L723.426 377.16H721.339L498.439 229.93L715.871 377.16H712.194L563.567 276.521L708.612 377.16H704.996L564.796 279.882L701.676 377.16H699.72L496.26 232.563L694.979 377.16H693.062L497.939 235.18L688.586 377.16H684.984L569.782 291.365L682.383 377.16H678.864L570.09 294.28L676.444 377.16H674.633L494.835 237.046L670.689 377.16H668.909L451.099 203.615L445.536 199.377L455.359 207.728L663.406 377.16H661.659L495.264 241.648L496.328 242.553L658.083 377.16H656.363L576.184 310.438L654.673 377.16H652.984L496.058 243.759L494.784 242.699L649.665 377.16H648.005L454.744 209.379L446.812 202.777L458.571 213.637L643.052 377.16H641.417L497.785 249.845L502.585 254.277L638.397 377.16H636.787L581.065 326.743L635.667 377.16H634.082L502.336 255.509L497.318 250.969L631.263 377.16H629.702L457.918 215.317L447.727 206.098L461.795 220.158L625.16 377.16H623.621L500.294 258.637L509.647 267.985L621.031 377.16H619.515L586.696 344.992L618.882 377.16H617.385L509.16 268.994L499.98 259.997L614.962 377.16H613.488L461.239 222.023Z" fill="url(#paint0_radial_200_160)"/>
<path d="M375.716 222.006L418.469 180.104V174.08L-61 262.647V263.943L-60.5322 263.856L-60.4805 264.023L321.903 193.39L-61 269.709V271.005L-60.1006 270.825L-60.0479 270.992L320.369 195.17L-61 276.761V277.432L-60.8057 278.016L334.283 193.489L-60.7158 283.784L-60.3076 284.988L333.116 195.054L-60.2129 290.74L-59.792 291.937L-58.665 291.663L-58.585 291.89L317.721 200.344L-59.6514 297.701L-59.2236 298.892L-58.1025 298.603L-58.0215 298.828L316.183 202.286L-59.0674 304.635L-58.8477 305.225L-58.6279 305.816L334.704 198.536L-58.4395 311.579L-58.2158 312.166L-57.9932 312.754L333.366 200.224L-57.7725 318.487L-57.3145 319.652L-56.2285 319.325L-56.1152 319.611L313.328 207.906L-57.0771 325.411L-56.6133 326.57L-55.5215 326.224L-55.4062 326.512L311.931 209.98L-56.335 332.3L-55.8604 333.451L335.58 203.434L-55.5527 339.202L-55.0723 340.347L333.352 205.52L-54.7539 346.062L-54.2627 347.197L-53.2021 346.814L-53.0557 347.155L309.823 215.746L-53.9043 352.94L-53.4072 354.068L-52.3486 353.67L-52.2012 354.004L308.125 218.09L-53.0254 359.775L-52.7725 360.334L-52.5205 360.894L336.106 208.429L-52.1035 366.623L-51.5908 367.734L334.216 210.52L-51.1641 373.433L-50.9043 373.983L-50.6436 374.534L-49.6123 374.1L-49.4287 374.489L305.949 224.259L-43.1123 377.16H-39.0176L304.395 226.732L-27.377 377.16H-24.4434L336.604 213.458L-12.5557 377.16H-9.71484L334.996 215.544L79.168 339.456L1.32324 377.16H5.20215L302.146 233.335L14.457 377.16H18.2344L300.854 235.868L26.8174 377.16H29.418L337.608 218.259L38.5498 377.16H41.0811L335.604 220.67L49.5996 377.16H52.0703L338.05 220.687L60.1562 377.16H62.5605L336.252 223.057L70.1299 377.16H72.4688L338.23 223.266L79.6533 377.16H81.9365L337.331 225.159L88.7002 377.16H92.4795L280.955 261.936L97.3701 377.16H101.064L279.442 265.204L105.603 377.16H107.732L339.275 228.04L113.513 377.16H115.598L338.517 229.917L121.066 377.16H124.743L273.36 276.527L128.325 377.16H131.941L272.137 279.885L135.261 377.16H137.218L340.811 232.47L141.962 377.16H143.88L338.832 235.304L148.352 377.16H151.952L267.328 291.236L154.559 377.16H158.073L266.846 294.281L160.492 377.16H162.305L342.317 236.879L166.253 377.16H168.031L385.918 203.555L391.392 199.385L381.59 207.716L173.529 377.16H175.278L341.674 241.648L340.568 242.588L178.855 377.16H180.574L260.761 310.432L182.265 377.16H183.953L340.888 243.752L342.143 242.708L187.272 377.16H188.933L382.193 209.379L390.126 202.777L378.366 213.637L193.886 377.16H195.521L339.152 249.845L334.353 254.277L198.54 377.16H200.15L255.872 326.743L201.271 377.16H202.855L334.602 255.509L339.619 250.969L205.675 377.16H207.235L379.02 215.317L389.211 206.098L375.143 220.158L211.777 377.16H213.316L336.644 258.637L327.29 267.985L215.906 377.16H217.423L250.241 344.992L218.056 377.16H219.553L327.777 268.994L336.957 259.997L221.976 377.16H223.45L375.716 222.006Z" fill="#D9D9D9"/>
<path d="M375.716 222.006L418.469 180.104V174.08L-61 262.647V263.943L-60.5322 263.856L-60.4805 264.023L321.903 193.39L-61 269.709V271.005L-60.1006 270.825L-60.0479 270.992L320.369 195.17L-61 276.761V277.432L-60.8057 278.016L334.283 193.489L-60.7158 283.784L-60.3076 284.988L333.116 195.054L-60.2129 290.74L-59.792 291.937L-58.665 291.663L-58.585 291.89L317.721 200.344L-59.6514 297.701L-59.2236 298.892L-58.1025 298.603L-58.0215 298.828L316.183 202.286L-59.0674 304.635L-58.8477 305.225L-58.6279 305.816L334.704 198.536L-58.4395 311.579L-58.2158 312.166L-57.9932 312.754L333.366 200.224L-57.7725 318.487L-57.3145 319.652L-56.2285 319.325L-56.1152 319.611L313.328 207.906L-57.0771 325.411L-56.6133 326.57L-55.5215 326.224L-55.4062 326.512L311.931 209.98L-56.335 332.3L-55.8604 333.451L335.58 203.434L-55.5527 339.202L-55.0723 340.347L333.352 205.52L-54.7539 346.062L-54.2627 347.197L-53.2021 346.814L-53.0557 347.155L309.823 215.746L-53.9043 352.94L-53.4072 354.068L-52.3486 353.67L-52.2012 354.004L308.125 218.09L-53.0254 359.775L-52.7725 360.334L-52.5205 360.894L336.106 208.429L-52.1035 366.623L-51.5908 367.734L334.216 210.52L-51.1641 373.433L-50.9043 373.983L-50.6436 374.534L-49.6123 374.1L-49.4287 374.489L305.949 224.259L-43.1123 377.16H-39.0176L304.395 226.732L-27.377 377.16H-24.4434L336.604 213.458L-12.5557 377.16H-9.71484L334.996 215.544L79.168 339.456L1.32324 377.16H5.20215L302.146 233.335L14.457 377.16H18.2344L300.854 235.868L26.8174 377.16H29.418L337.608 218.259L38.5498 377.16H41.0811L335.604 220.67L49.5996 377.16H52.0703L338.05 220.687L60.1562 377.16H62.5605L336.252 223.057L70.1299 377.16H72.4688L338.23 223.266L79.6533 377.16H81.9365L337.331 225.159L88.7002 377.16H92.4795L280.955 261.936L97.3701 377.16H101.064L279.442 265.204L105.603 377.16H107.732L339.275 228.04L113.513 377.16H115.598L338.517 229.917L121.066 377.16H124.743L273.36 276.527L128.325 377.16H131.941L272.137 279.885L135.261 377.16H137.218L340.811 232.47L141.962 377.16H143.88L338.832 235.304L148.352 377.16H151.952L267.328 291.236L154.559 377.16H158.073L266.846 294.281L160.492 377.16H162.305L342.317 236.879L166.253 377.16H168.031L385.918 203.555L391.392 199.385L381.59 207.716L173.529 377.16H175.278L341.674 241.648L340.568 242.588L178.855 377.16H180.574L260.761 310.432L182.265 377.16H183.953L340.888 243.752L342.143 242.708L187.272 377.16H188.933L382.193 209.379L390.126 202.777L378.366 213.637L193.886 377.16H195.521L339.152 249.845L334.353 254.277L198.54 377.16H200.15L255.872 326.743L201.271 377.16H202.855L334.602 255.509L339.619 250.969L205.675 377.16H207.235L379.02 215.317L389.211 206.098L375.143 220.158L211.777 377.16H213.316L336.644 258.637L327.29 267.985L215.906 377.16H217.423L250.241 344.992L218.056 377.16H219.553L327.777 268.994L336.957 259.997L221.976 377.16H223.45L375.716 222.006Z" fill="url(#paint1_radial_200_160)"/>
<path d="M461.222 126.154L418.469 168.057V174.08L897.938 85.5127V84.2168L897.47 84.3037L897.418 84.1367L515.034 154.771L897.938 78.4512V77.1553L897.038 77.335L896.985 77.168L516.568 152.99L897.938 71.3994V70.7285L897.743 70.1445L502.654 154.671L897.653 64.376L897.245 63.1719L503.821 153.106L897.15 57.4199L896.729 56.2236L895.603 56.4971L895.522 56.2705L519.217 147.816L896.589 50.459L896.161 49.2686L895.04 49.5576L894.959 49.332L520.755 145.874L896.005 43.5254L895.785 42.9355L895.565 42.3438L502.233 149.624L895.377 36.5811L895.153 35.9941L894.931 35.4062L503.571 147.937L894.71 29.6729L894.252 28.5078L893.166 28.835L893.053 28.5488L523.609 140.254L894.015 22.749L893.551 21.5898L892.459 21.9365L892.344 21.6484L525.007 138.18L893.272 15.8604L892.798 14.709L501.357 144.727L892.49 8.95801L892.01 7.81348L503.586 142.641L891.691 2.09863L891.2 0.962891L890.14 1.3457L889.993 1.00488L527.114 132.414L890.842 -4.78027L890.345 -5.9082L889.286 -5.50977L889.139 -5.84375L528.812 130.07L889.963 -11.6152L889.71 -12.1738L889.458 -12.7334L500.831 139.731L889.041 -18.4629L888.528 -19.5742L502.722 137.641L888.102 -25.2725L887.842 -25.8232L887.581 -26.374L886.55 -25.9395L886.366 -26.3291L530.988 123.901L880.05 -29H875.955L532.543 121.428L864.314 -29H861.381L500.333 134.702L849.493 -29H846.652L501.941 132.616L757.77 8.7041L835.614 -29H831.735L534.792 114.825L822.48 -29H818.703L536.083 112.292L810.12 -29H807.52L499.329 129.901L798.388 -29H795.856L501.334 127.49L787.338 -29H784.867L498.888 127.474L776.781 -29H774.377L500.686 125.104L766.808 -29H764.469L498.707 124.895L757.284 -29H755.001L499.606 123.001L748.237 -29H744.458L555.982 86.2246L739.567 -29H735.873L557.495 82.9561L731.335 -29H729.205L497.662 120.12L723.425 -29H721.34L498.421 118.243L715.871 -29H712.194L563.577 71.6328L708.612 -29H704.996L564.801 68.2754L701.677 -29H699.72L496.127 115.69L694.976 -29H693.058L498.105 112.856L688.586 -29H684.985L569.609 56.9238L682.379 -29H678.864L570.092 53.8789L676.445 -29H674.633L494.62 111.281L670.685 -29H668.906L451.02 144.605L445.546 148.775L455.348 140.444L663.408 -29H661.659L495.264 106.512L496.369 105.572L658.082 -29H656.363L576.177 37.7285L654.673 -29H652.984L496.05 104.408L494.795 105.452L649.665 -29H648.005L454.744 138.781L446.812 145.383L458.571 134.523L643.052 -29H641.417L497.785 98.3154L502.585 93.8828L638.397 -29H636.787L581.065 21.417L635.667 -29H634.082L502.336 92.6514L497.318 97.1914L631.263 -29H629.702L457.918 132.843L447.727 142.062L461.795 128.002L625.16 -29H623.621L500.294 89.5234L509.647 80.1748L621.031 -29H619.515L586.696 3.16797L618.882 -29H617.385L509.16 79.166L499.98 88.1631L614.962 -29H613.487L461.222 126.154Z" fill="#D9D9D9"/>
<path d="M461.222 126.154L418.469 168.057V174.08L897.938 85.5127V84.2168L897.47 84.3037L897.418 84.1367L515.034 154.771L897.938 78.4512V77.1553L897.038 77.335L896.985 77.168L516.568 152.99L897.938 71.3994V70.7285L897.743 70.1445L502.654 154.671L897.653 64.376L897.245 63.1719L503.821 153.106L897.15 57.4199L896.729 56.2236L895.603 56.4971L895.522 56.2705L519.217 147.816L896.589 50.459L896.161 49.2686L895.04 49.5576L894.959 49.332L520.755 145.874L896.005 43.5254L895.785 42.9355L895.565 42.3438L502.233 149.624L895.377 36.5811L895.153 35.9941L894.931 35.4062L503.571 147.937L894.71 29.6729L894.252 28.5078L893.166 28.835L893.053 28.5488L523.609 140.254L894.015 22.749L893.551 21.5898L892.459 21.9365L892.344 21.6484L525.007 138.18L893.272 15.8604L892.798 14.709L501.357 144.727L892.49 8.95801L892.01 7.81348L503.586 142.641L891.691 2.09863L891.2 0.962891L890.14 1.3457L889.993 1.00488L527.114 132.414L890.842 -4.78027L890.345 -5.9082L889.286 -5.50977L889.139 -5.84375L528.812 130.07L889.963 -11.6152L889.71 -12.1738L889.458 -12.7334L500.831 139.731L889.041 -18.4629L888.528 -19.5742L502.722 137.641L888.102 -25.2725L887.842 -25.8232L887.581 -26.374L886.55 -25.9395L886.366 -26.3291L530.988 123.901L880.05 -29H875.955L532.543 121.428L864.314 -29H861.381L500.333 134.702L849.493 -29H846.652L501.941 132.616L757.77 8.7041L835.614 -29H831.735L534.792 114.825L822.48 -29H818.703L536.083 112.292L810.12 -29H807.52L499.329 129.901L798.388 -29H795.856L501.334 127.49L787.338 -29H784.867L498.888 127.474L776.781 -29H774.377L500.686 125.104L766.808 -29H764.469L498.707 124.895L757.284 -29H755.001L499.606 123.001L748.237 -29H744.458L555.982 86.2246L739.567 -29H735.873L557.495 82.9561L731.335 -29H729.205L497.662 120.12L723.425 -29H721.34L498.421 118.243L715.871 -29H712.194L563.577 71.6328L708.612 -29H704.996L564.801 68.2754L701.677 -29H699.72L496.127 115.69L694.976 -29H693.058L498.105 112.856L688.586 -29H684.985L569.609 56.9238L682.379 -29H678.864L570.092 53.8789L676.445 -29H674.633L494.62 111.281L670.685 -29H668.906L451.02 144.605L445.546 148.775L455.348 140.444L663.408 -29H661.659L495.264 106.512L496.369 105.572L658.082 -29H656.363L576.177 37.7285L654.673 -29H652.984L496.05 104.408L494.795 105.452L649.665 -29H648.005L454.744 138.781L446.812 145.383L458.571 134.523L643.052 -29H641.417L497.785 98.3154L502.585 93.8828L638.397 -29H636.787L581.065 21.417L635.667 -29H634.082L502.336 92.6514L497.318 97.1914L631.263 -29H629.702L457.918 132.843L447.727 142.062L461.795 128.002L625.16 -29H623.621L500.294 89.5234L509.647 80.1748L621.031 -29H619.515L586.696 3.16797L618.882 -29H617.385L509.16 79.166L499.98 88.1631L614.962 -29H613.487L461.222 126.154Z" fill="url(#paint2_radial_200_160)"/>
<path d="M375.716 126.154L418.469 168.057V174.08L-61 85.5127V84.2168L-60.5303 84.3037L-60.4785 84.1367L321.802 154.75L-61 78.4512V77.1553L-60.1006 77.335L-60.0479 77.168L320.439 153.005L-61 71.3994V70.7344L-60.8037 70.1445L334.271 154.668L-60.7158 64.376L-60.3076 63.1719L333.094 153.102L-60.2129 57.4199L-59.792 56.2236L-58.6631 56.498L-58.583 56.2705L317.724 147.817L-59.6514 50.459L-59.2236 49.2686L-58.1025 49.5576L-58.0215 49.332L316.203 145.88L-59.0674 43.5254L-58.8477 42.9355L-58.6279 42.3438L334.704 149.624L-58.4395 36.5811L-58.2158 35.9941L-57.9932 35.4062L333.328 147.926L-57.7725 29.6729L-57.3145 28.5078L-56.2256 28.8359L-56.1133 28.5488L313.285 140.24L-57.0771 22.749L-56.6133 21.5898L-55.5215 21.9365L-55.4062 21.6484L311.95 138.186L-56.335 15.8604L-55.8604 14.709L335.58 144.727L-55.5527 8.95801L-55.0723 7.81348L333.352 142.641L-54.7539 2.09863L-54.2627 0.962891L-53.2012 1.34668L-53.0537 1.00488L309.736 132.381L-53.9043 -4.78027L-53.4072 -5.9082L-52.3486 -5.50977L-52.2012 -5.84375L308.132 130.072L-53.0254 -11.6152L-52.7725 -12.1738L-52.5205 -12.7334L336.136 139.743L-52.1035 -18.4629L-51.5908 -19.5742L334.306 137.678L-51.1621 -25.2725L-50.9023 -25.8232L-50.6406 -26.374L-49.6133 -25.9395L-49.4287 -26.3291L305.94 123.897L-43.1123 -29H-39.0176L304.399 121.43L-27.377 -29H-24.4434L336.626 134.712L-12.5557 -29H-9.71484L334.989 132.613L1.32422 -29H5.20215L302.123 114.813L14.457 -29H18.2344L300.886 112.308L26.8174 -29H29.418L337.571 129.882L38.5498 -29H41.0811L335.602 127.489L49.5996 -29H52.0703L338.05 127.474L60.1562 -29H62.5605L336.252 125.104L70.1299 -29H72.4688L338.23 124.895L79.6533 -29H81.9365L337.331 123.001L88.7002 -29H92.4795L280.955 86.2246L97.3701 -29H101.064L279.442 82.9561L105.603 -29H107.732L339.275 120.12L113.513 -29H115.598L338.517 118.243L121.066 -29H124.743L273.36 71.6328L128.325 -29H131.941L272.137 68.2754L135.261 -29H137.218L340.811 115.69L141.962 -29H143.88L338.832 112.856L148.352 -29H151.952L267.328 56.9238L154.559 -29H158.073L266.846 53.8789L160.492 -29H162.305L342.317 111.281L166.253 -29H168.031L385.918 144.605L391.392 148.775L381.59 140.444L173.529 -29H175.278L341.674 106.512L340.568 105.572L178.855 -29H180.574L260.761 37.7285L182.265 -29H183.953L340.888 104.408L342.143 105.452L187.272 -29H188.933L382.193 138.781L390.126 145.383L378.366 134.523L193.886 -29H195.521L339.152 98.3154L334.353 93.8828L198.54 -29H200.15L255.872 21.417L201.271 -29H202.855L334.602 92.6514L339.619 97.1914L205.675 -29H207.235L379.02 132.843L389.211 142.062L375.143 128.002L211.777 -29H213.316L336.644 89.5234L327.29 80.1748L215.906 -29H217.423L250.241 3.16797L218.056 -29H219.553L327.777 79.166L336.957 88.1631L221.976 -29H223.45L375.716 126.154Z" fill="#D9D9D9"/>
<path d="M375.716 126.154L418.469 168.057V174.08L-61 85.5127V84.2168L-60.5303 84.3037L-60.4785 84.1367L321.802 154.75L-61 78.4512V77.1553L-60.1006 77.335L-60.0479 77.168L320.439 153.005L-61 71.3994V70.7344L-60.8037 70.1445L334.271 154.668L-60.7158 64.376L-60.3076 63.1719L333.094 153.102L-60.2129 57.4199L-59.792 56.2236L-58.6631 56.498L-58.583 56.2705L317.724 147.817L-59.6514 50.459L-59.2236 49.2686L-58.1025 49.5576L-58.0215 49.332L316.203 145.88L-59.0674 43.5254L-58.8477 42.9355L-58.6279 42.3438L334.704 149.624L-58.4395 36.5811L-58.2158 35.9941L-57.9932 35.4062L333.328 147.926L-57.7725 29.6729L-57.3145 28.5078L-56.2256 28.8359L-56.1133 28.5488L313.285 140.24L-57.0771 22.749L-56.6133 21.5898L-55.5215 21.9365L-55.4062 21.6484L311.95 138.186L-56.335 15.8604L-55.8604 14.709L335.58 144.727L-55.5527 8.95801L-55.0723 7.81348L333.352 142.641L-54.7539 2.09863L-54.2627 0.962891L-53.2012 1.34668L-53.0537 1.00488L309.736 132.381L-53.9043 -4.78027L-53.4072 -5.9082L-52.3486 -5.50977L-52.2012 -5.84375L308.132 130.072L-53.0254 -11.6152L-52.7725 -12.1738L-52.5205 -12.7334L336.136 139.743L-52.1035 -18.4629L-51.5908 -19.5742L334.306 137.678L-51.1621 -25.2725L-50.9023 -25.8232L-50.6406 -26.374L-49.6133 -25.9395L-49.4287 -26.3291L305.94 123.897L-43.1123 -29H-39.0176L304.399 121.43L-27.377 -29H-24.4434L336.626 134.712L-12.5557 -29H-9.71484L334.989 132.613L1.32422 -29H5.20215L302.123 114.813L14.457 -29H18.2344L300.886 112.308L26.8174 -29H29.418L337.571 129.882L38.5498 -29H41.0811L335.602 127.489L49.5996 -29H52.0703L338.05 127.474L60.1562 -29H62.5605L336.252 125.104L70.1299 -29H72.4688L338.23 124.895L79.6533 -29H81.9365L337.331 123.001L88.7002 -29H92.4795L280.955 86.2246L97.3701 -29H101.064L279.442 82.9561L105.603 -29H107.732L339.275 120.12L113.513 -29H115.598L338.517 118.243L121.066 -29H124.743L273.36 71.6328L128.325 -29H131.941L272.137 68.2754L135.261 -29H137.218L340.811 115.69L141.962 -29H143.88L338.832 112.856L148.352 -29H151.952L267.328 56.9238L154.559 -29H158.073L266.846 53.8789L160.492 -29H162.305L342.317 111.281L166.253 -29H168.031L385.918 144.605L391.392 148.775L381.59 140.444L173.529 -29H175.278L341.674 106.512L340.568 105.572L178.855 -29H180.574L260.761 37.7285L182.265 -29H183.953L340.888 104.408L342.143 105.452L187.272 -29H188.933L382.193 138.781L390.126 145.383L378.366 134.523L193.886 -29H195.521L339.152 98.3154L334.353 93.8828L198.54 -29H200.15L255.872 21.417L201.271 -29H202.855L334.602 92.6514L339.619 97.1914L205.675 -29H207.235L379.02 132.843L389.211 142.062L375.143 128.002L211.777 -29H213.316L336.644 89.5234L327.29 80.1748L215.906 -29H217.423L250.241 3.16797L218.056 -29H219.553L327.777 79.166L336.957 88.1631L221.976 -29H223.45L375.716 126.154Z" fill="url(#paint3_radial_200_160)"/>
<rect width="1200" height="70" fill="url(#paint4_linear_200_160)"/>
<rect width="1200" height="70" transform="matrix(1 0 0 -1 0 348)" fill="url(#paint5_linear_200_160)"/>
</g>
<defs>
<radialGradient id="paint0_radial_200_160" cx="0" cy="0" r="1" gradientTransform="matrix(462.553 202.988 502.228 -1052.51 418.469 174.172)" gradientUnits="userSpaceOnUse">
<stop offset="0.206731"/>
<stop offset="0.336538" stop-color="#01052B"/>
<stop offset="0.639423" stop-color="#00AEFF"/>
<stop offset="0.855769" stop-color="#0073FF"/>
</radialGradient>
<radialGradient id="paint1_radial_200_160" cx="0" cy="0" r="1" gradientTransform="matrix(-462.553 202.988 -502.228 -1052.51 418.469 174.172)" gradientUnits="userSpaceOnUse">
<stop offset="0.206731"/>
<stop offset="0.336538" stop-color="#01052B"/>
<stop offset="0.639423" stop-color="#00AEFF"/>
<stop offset="0.855769" stop-color="#0073FF"/>
</radialGradient>
<radialGradient id="paint2_radial_200_160" cx="0" cy="0" r="1" gradientTransform="matrix(462.553 -202.988 502.228 1052.51 418.469 173.988)" gradientUnits="userSpaceOnUse">
<stop offset="0.206731"/>
<stop offset="0.336538" stop-color="#01052B"/>
<stop offset="0.639423" stop-color="#00AEFF"/>
<stop offset="0.855769" stop-color="#0073FF"/>
</radialGradient>
<radialGradient id="paint3_radial_200_160" cx="0" cy="0" r="1" gradientTransform="matrix(-462.553 -202.988 -502.228 1052.51 418.469 173.988)" gradientUnits="userSpaceOnUse">
<stop offset="0.206731"/>
<stop offset="0.336538" stop-color="#01052B"/>
<stop offset="0.639423" stop-color="#00AEFF"/>
<stop offset="0.855769" stop-color="#0073FF"/>
</radialGradient>
<linearGradient id="paint4_linear_200_160" x1="600" y1="0" x2="600" y2="70" gradientUnits="userSpaceOnUse">
<stop stop-color="#010101"/>
<stop offset="1" stop-color="#010101" stop-opacity="0"/>
</linearGradient>
<linearGradient id="paint5_linear_200_160" x1="600" y1="0" x2="600" y2="70" gradientUnits="userSpaceOnUse">
<stop stop-color="#010101"/>
<stop offset="1" stop-color="#010101" stop-opacity="0"/>
</linearGradient>
<clipPath id="clip0_200_160">
<rect width="835" height="348" fill="white"/>
</clipPath>
</defs>
</svg>
